<svg xmlns="http://www.w3.org/2000/svg" width="112.86" height="146" viewBox="0 0 112.86 146">
  <defs>
    <style>
      .cls-1 {
        fill: #494949;
      }
    </style>
  </defs>
  <title>hca_silhuet</title>
  <g id="Lag_2" data-name="Lag 2">
    <g id="Lag_1-2" data-name="Lag 1">
      <path class="cls-1" d="M108.5,55.5c1.06-2.19-3.09-2.24-16.5-.5L63,0C37,7.22,14.54,16.93,0,32L19,83C3.74,90.15.2,93.22,12.31,89.62L17.5,90C9.25,95.11,7,97.2,12,99c-5.92,6.41-2.56,8.12,4,8-.48,3.81-1.05,7.73,5,4,1.3,2.76,3,4.94,7,4,1.1,1.63,5.09,2.77,9.56,4.24a1.88,1.88,0,0,1,0,3.54L37,123l1,11,20,12,4-4,15,2,5-7h6l-.5-5H90l9-1c3.46-2.25,4.09-6.51,3-12l2-4c1-1,2-2,1-4,1.16-1.7,1.18-3.7,0-6l-1-5,6-1c4.18-1.33,3.73-4.5-1-10-3.87-4-9-5.82-12.5-7.5,2.54-11.35-.13-11.56-2-14,3.34-1.21,2.29-6.3,2-7Z"/>
    </g>
  </g>
</svg>
