<svg id="timeline" xmlns="http://www.w3.org/2000/svg"  viewBox="0 0 6500 880">
  <title>timeline</title>
  <line class="cls-1" x1="315" y1="258" x2="6180" y2="258"/>
  <!-- 1875 - Død -->
  <g id="event1875" class="event">
    <g class="image_frame">
      <rect id="frame" class="cls-2" x="6037.5" y="371" width="283" height="336"/>
      <polyline class="cls-3" points="6037.5 371 6178.5 258 6320.5 371"/>
      <g id="image">
        <path class="cls-4" d="M6268.48,487.05h0l-18.27,136L6142.1,605.86l18.28-135.95h0c0-.21,0-.43.07-.65,4.36-32.42,32.1-54.86,61.95-50.13s50.53,34.86,46.17,67.28C6268.55,486.63,6268.52,486.84,6268.48,487.05Z"/>
        <polygon class="cls-5" points="6245.96 491.01 6244.53 501.61 6216.6 497.18 6207 568.59 6197.25 567.04 6206.85 495.63 6179.51 491.3 6180.93 480.7 6208.27 485.04 6212.48 453.75 6222.23 455.3 6218.03 486.59 6245.96 491.01"/>
        <path class="cls-6" d="M6286,635.5H6061.21c28.54-22.07,68.35-35.77,112.4-35.77S6257.46,613.43,6286,635.5Z"/>
      </g>
    </g>
    <circle class="nail cls-7" cx="6179" cy="258.5" r="17.5"/>
    <text class="year cls-8"  transform="translate(6109.53 219.1)">1875</text>
  </g>
  <!-- 1867 - Æresborger -->
  <g id="event1867" class="event">
    <g class="image_frame">
      <rect id="frame-2" data-name="frame" class="cls-2" x="5504.5" y="371" width="283" height="336"/>
      <polyline class="cls-3" points="5504.5 371 5646.5 258 5787.5 371"/>
      <g id="image-2" data-name="image">
        <polygon class="cls-9" points="5632.33 512.56 5589.86 657.88 5620.95 650.94 5633.85 666.97 5648.26 514.7 5632.33 512.56"/>
        <polygon class="cls-9" points="5657.36 513.1 5699.84 658.42 5668.74 651.47 5655.85 667.5 5641.43 515.24 5657.36 513.1"/>
        <g>
          <path class="cls-10" d="M5717.39,480.77c0,2.63-2.92,5.08-3.2,7.64s2,5.64,1.44,8.15-4,4.29-4.83,6.73.7,5.94-.43,8.27-4.83,3.28-6.21,5.48-.63,5.93-2.26,8-5.43,2.13-7.27,4-1.93,5.65-4,7.27-5.76.87-8,2.25-3.12,5.08-5.48,6.21-5.8-.44-8.27.42-4.17,4.25-6.73,4.83-5.54-1.74-8.15-1.45-5,3.21-7.64,3.21-5.07-2.92-7.63-3.21-5.64,2-8.16,1.45-4.29-4-6.73-4.83-5.94.71-8.27-.42-3.28-4.83-5.48-6.21-5.94-.63-8-2.25-2.12-5.43-4-7.27-5.65-1.92-7.28-4-.86-5.76-2.25-8-5.08-3.12-6.22-5.47.44-5.8-.42-8.27-4.25-4.17-4.83-6.73,1.73-5.54,1.44-8.15-3.2-5-3.2-7.64,2.92-5.08,3.2-7.64-2-5.64-1.44-8.15,4-4.29,4.83-6.73-.7-5.94.42-8.27,4.83-3.28,6.22-5.48.63-5.93,2.25-8,5.44-2.12,7.28-4,1.93-5.65,4-7.27,5.77-.87,8-2.25,3.13-5.08,5.48-6.21,5.8.44,8.27-.42,4.18-4.25,6.73-4.83,5.55,1.74,8.16,1.45,5-3.21,7.63-3.21,5.08,2.92,7.64,3.21,5.64-2,8.16-1.45,4.29,4,6.73,4.83,5.93-.71,8.27.42,3.28,4.83,5.48,6.21,5.94.63,8,2.25,2.12,5.43,4,7.27,5.65,1.92,7.27,4,.87,5.76,2.26,8,5.08,3.12,6.21,5.47-.44,5.8.43,8.27,4.24,4.17,4.83,6.73-1.74,5.54-1.44,8.15S5717.39,478.14,5717.39,480.77Z"/>
          <path class="cls-11" d="M5717.39,480.77c0,2.63-2.92,5.08-3.2,7.64s2,5.64,1.44,8.15-4,4.29-4.83,6.73.7,5.94-.43,8.27-4.83,3.28-6.21,5.48-.63,5.93-2.26,8-5.43,2.13-7.27,4-1.93,5.65-4,7.27-5.76.87-8,2.25-3.12,5.08-5.48,6.21-5.8-.44-8.27.42-4.17,4.25-6.73,4.83-5.54-1.74-8.15-1.45-5,3.21-7.64,3.21-5.07-2.92-7.63-3.21-5.64,2-8.16,1.45-4.29-4-6.73-4.83-5.94.71-8.27-.42-3.28-4.83-5.48-6.21-5.94-.63-8-2.25-2.12-5.43-4-7.27-5.65-1.92-7.28-4-.86-5.76-2.25-8-5.08-3.12-6.22-5.47.44-5.8-.42-8.27-4.25-4.17-4.83-6.73,1.73-5.54,1.44-8.15-3.2-5-3.2-7.64,2.92-5.08,3.2-7.64-2-5.64-1.44-8.15,4-4.29,4.83-6.73-.7-5.94.42-8.27,4.83-3.28,6.22-5.48.63-5.93,2.25-8,5.44-2.12,7.28-4,1.93-5.65,4-7.27,5.77-.87,8-2.25,3.13-5.08,5.48-6.21,5.8.44,8.27-.42,4.18-4.25,6.73-4.83,5.55,1.74,8.16,1.45,5-3.21,7.63-3.21,5.08,2.92,7.64,3.21,5.64-2,8.16-1.45,4.29,4,6.73,4.83,5.93-.71,8.27.42,3.28,4.83,5.48,6.21,5.94.63,8,2.25,2.12,5.43,4,7.27,5.65,1.92,7.27,4,.87,5.76,2.26,8,5.08,3.12,6.21,5.47-.44,5.8.43,8.27,4.24,4.17,4.83,6.73-1.74,5.54-1.44,8.15S5717.39,478.14,5717.39,480.77Z"/>
        </g>
        <g>
          <path class="cls-12" d="M5696.77,480.77c0,1.87-2.07,3.6-2.27,5.42s1.42,4,1,5.78-2.82,3-3.43,4.78.5,4.21-.3,5.86-3.42,2.33-4.41,3.89-.45,4.21-1.6,5.65-3.85,1.51-5.16,2.81-1.37,4-2.81,5.16-4.09.61-5.65,1.59-2.22,3.6-3.89,4.41-4.12-.32-5.87.3-3,3-4.77,3.42-3.94-1.23-5.79-1-3.55,2.27-5.42,2.27-3.6-2.07-5.41-2.27-4,1.42-5.79,1-3-2.82-4.77-3.42-4.22.5-5.87-.3-2.33-3.43-3.89-4.41-4.21-.45-5.65-1.59-1.51-3.86-2.82-5.16-4-1.37-5.16-2.81-.61-4.09-1.6-5.65-3.6-2.22-4.4-3.89.31-4.11-.3-5.86-3-3-3.43-4.78,1.23-3.93,1-5.78-2.27-3.55-2.27-5.42,2.07-3.6,2.27-5.42-1.43-4-1-5.78,2.82-3.05,3.43-4.78-.5-4.21.3-5.86,3.42-2.33,4.4-3.89.46-4.21,1.61-5.65,3.85-1.51,5.16-2.81,1.37-4,2.81-5.16,4.09-.61,5.65-1.59,2.22-3.6,3.89-4.41,4.12.32,5.87-.3,3-3,4.77-3.42,3.93,1.23,5.79,1,3.55-2.28,5.41-2.28,3.61,2.07,5.42,2.28,4-1.43,5.79-1,3,2.82,4.77,3.43,4.21-.51,5.87.29,2.33,3.43,3.89,4.41,4.21.45,5.65,1.59,1.51,3.86,2.81,5.16,4,1.37,5.16,2.81.62,4.09,1.61,5.65,3.6,2.22,4.4,3.89-.31,4.11.3,5.87,3,3,3.43,4.77-1.23,3.93-1,5.78S5696.77,478.9,5696.77,480.77Z"/>
          <path class="cls-11" d="M5696.77,480.77c0,1.87-2.07,3.6-2.27,5.42s1.42,4,1,5.78-2.82,3-3.43,4.78.5,4.21-.3,5.86-3.42,2.33-4.41,3.89-.45,4.21-1.6,5.65-3.85,1.51-5.16,2.81-1.37,4-2.81,5.16-4.09.61-5.65,1.59-2.22,3.6-3.89,4.41-4.12-.32-5.87.3-3,3-4.77,3.42-3.94-1.23-5.79-1-3.55,2.27-5.42,2.27-3.6-2.07-5.41-2.27-4,1.42-5.79,1-3-2.82-4.77-3.42-4.22.5-5.87-.3-2.33-3.43-3.89-4.41-4.21-.45-5.65-1.59-1.51-3.86-2.82-5.16-4-1.37-5.16-2.81-.61-4.09-1.6-5.65-3.6-2.22-4.4-3.89.31-4.11-.3-5.86-3-3-3.43-4.78,1.23-3.93,1-5.78-2.27-3.55-2.27-5.42,2.07-3.6,2.27-5.42-1.43-4-1-5.78,2.82-3.05,3.43-4.78-.5-4.21.3-5.86,3.42-2.33,4.4-3.89.46-4.21,1.61-5.65,3.85-1.51,5.16-2.81,1.37-4,2.81-5.16,4.09-.61,5.65-1.59,2.22-3.6,3.89-4.41,4.12.32,5.87-.3,3-3,4.77-3.42,3.93,1.23,5.79,1,3.55-2.28,5.41-2.28,3.61,2.07,5.42,2.28,4-1.43,5.79-1,3,2.82,4.77,3.43,4.21-.51,5.87.29,2.33,3.43,3.89,4.41,4.21.45,5.65,1.59,1.51,3.86,2.81,5.16,4,1.37,5.16,2.81.62,4.09,1.61,5.65,3.6,2.22,4.4,3.89-.31,4.11.3,5.87,3,3,3.43,4.77-1.23,3.93-1,5.78S5696.77,478.9,5696.77,480.77Z"/>
        </g>
        <g>
          <path class="cls-10" d="M5655.19,480.77c0,.33-.36.63-.4.94s.25.7.18,1-.49.53-.6.83.09.74-.05,1-.6.41-.77.68-.08.73-.28,1-.67.27-.89.49-.24.7-.49.9-.71.11-1,.28-.38.62-.67.76-.72-.05-1,.06-.51.52-.83.59-.68-.21-1-.18-.62.4-.95.4-.62-.36-.94-.4-.7.25-1,.18-.53-.49-.83-.59-.73.08-1-.06-.41-.59-.68-.76-.73-.08-1-.28-.26-.67-.49-.9-.7-.24-.9-.49-.11-.71-.28-1-.62-.39-.76-.68.05-.71-.06-1-.52-.51-.59-.83.21-.68.18-1-.4-.61-.4-.94.36-.63.4-.94-.25-.7-.18-1,.49-.53.59-.83-.08-.74.06-1,.59-.41.76-.68.08-.73.28-1,.67-.27.9-.49.24-.7.49-.9.71-.11,1-.28.39-.62.68-.76.72.05,1-.06.52-.52.83-.59.69.21,1,.18.62-.4.94-.4.63.36.95.4.69-.25,1-.18.53.49.84.59.73-.08,1,.06.4.59.67.76.74.08,1,.28.26.67.49.9.7.24.9.49.1.71.27,1,.63.39.77.68,0,.71.05,1,.53.51.6.83-.21.68-.18,1S5655.19,480.44,5655.19,480.77Z"/>
          <path class="cls-11" d="M5655.19,480.77c0,.33-.36.63-.4.94s.25.7.18,1-.49.53-.6.83.09.74-.05,1-.6.41-.77.68-.08.73-.28,1-.67.27-.89.49-.24.7-.49.9-.71.11-1,.28-.38.62-.67.76-.72-.05-1,.06-.51.52-.83.59-.68-.21-1-.18-.62.4-.95.4-.62-.36-.94-.4-.7.25-1,.18-.53-.49-.83-.59-.73.08-1-.06-.41-.59-.68-.76-.73-.08-1-.28-.26-.67-.49-.9-.7-.24-.9-.49-.11-.71-.28-1-.62-.39-.76-.68.05-.71-.06-1-.52-.51-.59-.83.21-.68.18-1-.4-.61-.4-.94.36-.63.4-.94-.25-.7-.18-1,.49-.53.59-.83-.08-.74.06-1,.59-.41.76-.68.08-.73.28-1,.67-.27.9-.49.24-.7.49-.9.71-.11,1-.28.39-.62.68-.76.72.05,1-.06.52-.52.83-.59.69.21,1,.18.62-.4.94-.4.63.36.95.4.69-.25,1-.18.53.49.84.59.73-.08,1,.06.4.59.67.76.74.08,1,.28.26.67.49.9.7.24.9.49.1.71.27,1,.63.39.77.68,0,.71.05,1,.53.51.6.83-.21.68-.18,1S5655.19,480.44,5655.19,480.77Z"/>
        </g>
      </g>
    </g>
    <circle class="nail cls-7" cx="5646" cy="258.5" r="17.5"/>
    <text class="year cls-8" transform="translate(5577.53 219.1)">1867</text>
  </g>
  <!-- 1848 - Pigen med Svovlstikkerne  -->
  <g id="event1848" class="event">
    <g class="image_frame">
      <rect id="frame-3" data-name="frame" class="cls-2" x="4971.5" y="371" width="283" height="336"/>
      <polyline class="cls-3" points="4971.5 371 5112.5 258 5254.5 371"/>
      <g id="image-3" data-name="image">
        <path class="cls-5" d="M5172.31,482.35c-6.23,6.57-18.55,12.76-29,6.22-7.53-4.7-12-14.64-10.74-22.9,1.36-9.13,8.66-9.78,10.05-18.89s-4.27-19.48-11.52-23.79c-9-5.34-18.71-.38-19.22-2.24-.63-2.28,12.92-13.66,27.54-11.47,13.69,2,21.51,15,33,33.91,6.7,11.08,8.08,17.05,7.53,22.82A28,28,0,0,1,5172.31,482.35Z"/>
        <path class="cls-13" d="M5163.21,480.38a14.56,14.56,0,0,1-18.74-4.5c-4.1-5.41-5.65-13.42-3.89-18.62,1.94-5.73,6.54-4,8.49-9.7s-.29-14.39-4.27-19.46c-4.92-6.28-11.54-5.84-11.64-7.25-.11-1.72,9.66-5.33,18.45.52,8.24,5.46,11.52,16.49,16.35,32.68,2.81,9.45,2.95,13.88,1.91,17.6A14,14,0,0,1,5163.21,480.38Z"/>
        <polygon class="cls-14" points="5158.24 499.55 5050.79 662.35 5042.14 655.63 5149.59 492.83 5158.24 499.55"/>
        <ellipse class="cls-15" cx="5163.45" cy="482.41" rx="22.81" ry="12.79" transform="translate(2061.07 4638.02) rotate(-58.59)"/>
      </g>
    </g>
    <circle class="nail cls-7" cx="5113" cy="258.5" r="17.5"/>
    <text class="year cls-8" transform="translate(5043.53 219.1)">1848</text>
  </g>
  <!-- 1844 - Snedronningen -->
  <g id="event1844" class="event">
    <g class="image_frame">
      <rect id="frame-4" data-name="frame" class="cls-2" x="4438.5" y="371" width="283" height="336"/>
      <polyline class="cls-3" points="4438.5 371 4580.5 258 4721.5 371"/>
      <g>
        <g id="image-4" data-name="image">
          <g>
            <line class="cls-16" x1="4581.25" y1="516.09" x2="4581.25" y2="595.79"/>
            <line class="cls-16" x1="4581.25" y1="532.03" x2="4590.35" y2="517.68"/>
            <line class="cls-16" x1="4581.25" y1="540.8" x2="4590.35" y2="526.45"/>
            <line class="cls-16" x1="4581.25" y1="531.23" x2="4572.15" y2="516.89"/>
            <line class="cls-16" x1="4581.25" y1="540" x2="4572.15" y2="525.65"/>
            <line class="cls-16" x1="4581.25" y1="558.33" x2="4590.35" y2="543.99"/>
            <line class="cls-16" x1="4581.25" y1="557.54" x2="4572.15" y2="543.19"/>
            <line class="cls-16" x1="4581.25" y1="587.82" x2="4590.35" y2="573.48"/>
            <line class="cls-16" x1="4580.42" y1="587.03" x2="4571.32" y2="572.68"/>
          </g>
          <g>
            <line class="cls-16" x1="4581.25" y1="675.5" x2="4581.25" y2="595.79"/>
            <line class="cls-16" x1="4581.25" y1="659.56" x2="4590.35" y2="673.91"/>
            <line class="cls-16" x1="4581.25" y1="650.79" x2="4590.35" y2="665.14"/>
            <line class="cls-16" x1="4581.25" y1="660.36" x2="4572.15" y2="674.7"/>
            <line class="cls-16" x1="4581.25" y1="651.59" x2="4572.15" y2="665.94"/>
            <line class="cls-16" x1="4581.25" y1="633.26" x2="4590.35" y2="647.6"/>
            <line class="cls-16" x1="4581.25" y1="634.05" x2="4572.15" y2="648.4"/>
            <line class="cls-16" x1="4581.25" y1="603.76" x2="4590.35" y2="618.11"/>
            <line class="cls-16" x1="4580.42" y1="604.56" x2="4571.32" y2="618.91"/>
          </g>
          <g>
            <line class="cls-16" x1="4498.5" y1="595.79" x2="4581.25" y2="595.79"/>
            <line class="cls-16" x1="4515.05" y1="595.79" x2="4500.15" y2="587.03"/>
            <line class="cls-16" x1="4524.15" y1="595.79" x2="4509.26" y2="587.03"/>
            <line class="cls-16" x1="4514.22" y1="595.79" x2="4499.33" y2="604.56"/>
            <line class="cls-16" x1="4523.33" y1="595.79" x2="4508.43" y2="604.56"/>
            <line class="cls-16" x1="4542.36" y1="595.79" x2="4527.46" y2="587.03"/>
            <line class="cls-16" x1="4541.53" y1="595.79" x2="4526.64" y2="604.56"/>
            <line class="cls-16" x1="4572.98" y1="595.79" x2="4558.08" y2="587.03"/>
            <line class="cls-16" x1="4572.15" y1="596.59" x2="4557.25" y2="605.36"/>
          </g>
          <g>
            <line class="cls-16" x1="4664" y1="595.79" x2="4581.25" y2="595.79"/>
            <line class="cls-16" x1="4647.45" y1="595.79" x2="4662.35" y2="587.03"/>
            <line class="cls-16" x1="4638.35" y1="595.79" x2="4653.24" y2="587.03"/>
            <line class="cls-16" x1="4648.28" y1="595.79" x2="4663.17" y2="604.56"/>
            <line class="cls-16" x1="4639.17" y1="595.79" x2="4654.07" y2="604.56"/>
            <line class="cls-16" x1="4620.14" y1="595.79" x2="4635.04" y2="587.03"/>
            <line class="cls-16" x1="4620.97" y1="595.79" x2="4635.86" y2="604.56"/>
            <line class="cls-16" x1="4589.53" y1="595.79" x2="4604.42" y2="587.03"/>
            <line class="cls-16" x1="4590.35" y1="596.59" x2="4605.25" y2="605.36"/>
          </g>
          <g>
            <line class="cls-16" x1="4523.03" y1="652.5" x2="4581.55" y2="596.14"/>
            <line class="cls-16" x1="4534.74" y1="641.23" x2="4517.77" y2="645.18"/>
            <line class="cls-16" x1="4541.17" y1="635.03" x2="4524.2" y2="638.98"/>
            <line class="cls-16" x1="4534.15" y1="641.79" x2="4530.05" y2="658.14"/>
            <line class="cls-16" x1="4540.59" y1="635.59" x2="4536.49" y2="651.94"/>
            <line class="cls-16" x1="4554.04" y1="622.63" x2="4537.08" y2="626.58"/>
            <line class="cls-16" x1="4553.46" y1="623.19" x2="4549.36" y2="639.54"/>
            <line class="cls-16" x1="4575.69" y1="601.78" x2="4558.73" y2="605.72"/>
            <line class="cls-16" x1="4575.69" y1="602.9" x2="4571.6" y2="619.25"/>
          </g>
          <g>
            <line class="cls-16" x1="4639.94" y1="652.5" x2="4581.42" y2="596.14"/>
            <line class="cls-16" x1="4628.23" y1="641.23" x2="4645.2" y2="645.18"/>
            <line class="cls-16" x1="4621.8" y1="635.03" x2="4638.76" y2="638.98"/>
            <line class="cls-16" x1="4628.82" y1="641.79" x2="4632.91" y2="658.14"/>
            <line class="cls-16" x1="4622.38" y1="635.59" x2="4626.48" y2="651.94"/>
            <line class="cls-16" x1="4608.92" y1="622.63" x2="4625.89" y2="626.58"/>
            <line class="cls-16" x1="4609.51" y1="623.19" x2="4613.6" y2="639.54"/>
            <line class="cls-16" x1="4587.27" y1="601.78" x2="4604.24" y2="605.72"/>
            <line class="cls-16" x1="4587.27" y1="602.9" x2="4591.37" y2="619.25"/>
          </g>
          <g>
            <line class="cls-16" x1="4522.2" y1="539.61" x2="4580.72" y2="595.97"/>
            <line class="cls-16" x1="4533.91" y1="550.88" x2="4516.94" y2="546.93"/>
            <line class="cls-16" x1="4540.34" y1="557.08" x2="4523.38" y2="553.13"/>
            <line class="cls-16" x1="4533.32" y1="550.32" x2="4529.23" y2="533.97"/>
            <line class="cls-16" x1="4539.76" y1="556.52" x2="4535.66" y2="540.17"/>
            <line class="cls-16" x1="4553.22" y1="569.48" x2="4536.25" y2="565.53"/>
            <line class="cls-16" x1="4552.63" y1="568.91" x2="4548.54" y2="552.57"/>
            <line class="cls-16" x1="4574.87" y1="590.33" x2="4557.9" y2="586.39"/>
            <line class="cls-16" x1="4574.87" y1="589.2" x2="4570.77" y2="572.86"/>
          </g>
          <g>
            <line class="cls-16" x1="4639.94" y1="539.61" x2="4581.42" y2="595.97"/>
            <line class="cls-16" x1="4628.23" y1="550.88" x2="4645.2" y2="546.93"/>
            <line class="cls-16" x1="4621.8" y1="557.08" x2="4638.76" y2="553.13"/>
            <line class="cls-16" x1="4628.82" y1="550.32" x2="4632.91" y2="533.97"/>
            <line class="cls-16" x1="4622.38" y1="556.52" x2="4626.48" y2="540.17"/>
            <line class="cls-16" x1="4608.92" y1="569.48" x2="4625.89" y2="565.53"/>
            <line class="cls-16" x1="4609.51" y1="568.91" x2="4613.6" y2="552.57"/>
            <line class="cls-16" x1="4587.27" y1="590.33" x2="4604.24" y2="586.39"/>
            <line class="cls-16" x1="4587.27" y1="589.2" x2="4591.37" y2="572.86"/>
          </g>
        </g>
        <g id="image-5" data-name="image">
          <polygon class="cls-5" points="4654.07 473.84 4653.9 473.81 4654.07 474.24 4654.07 496.16 4514.22 496.16 4514.22 474.64 4514.38 474.24 4514.55 473.83 4514.22 473.84 4514.22 405.3 4524.66 448 4541.56 404.81 4558.33 447.64 4584.15 404.57 4609.95 447.61 4626.8 404.57 4643.43 447.06 4654.07 404.5 4654.07 473.84"/>
          <polygon class="cls-17" points="4587.74 460.29 4579.36 460.29 4573.43 466 4573.43 474.07 4579.36 479.78 4587.74 479.78 4593.66 474.07 4593.66 466 4587.74 460.29"/>
          <polygon class="cls-17" points="4635.73 459.5 4627.35 459.5 4621.43 465.2 4621.43 473.28 4627.35 478.99 4635.73 478.99 4641.66 473.28 4641.66 465.2 4635.73 459.5"/>
          <polygon class="cls-17" points="4541.4 461.09 4533.02 461.09 4527.09 466.8 4527.09 474.87 4533.02 480.58 4541.4 480.58 4547.32 474.87 4547.32 466.8 4541.4 461.09"/>
        </g>
      </g>
    </g>
    <circle class="nail cls-7" cx="4580" cy="258.5" r="17.5"/>
    <text class="year cls-8" transform="translate(4501.53 219.1)">1844</text>
  </g>
  <!-- 1843 - Den Grimme Ælling -->
  <g id="event1843" class="event">
    <g class="image_frame">
      <rect id="frame-5" data-name="frame" class="cls-2" x="3905.5" y="371" width="283" height="336"/>
      <polyline class="cls-3" points="3905.5 371 4046.5 258 4188.5 371"/>
      <g id="image-6" data-name="image">
        <path class="cls-18" d="M4151.5,551.5l-34.14,36.06h0l-6.34,6.7c-12.28,9.25-35.45,13.23-63.51,13.23-42,0-79-8.91-79-31a19.69,19.69,0,0,1,.36-3.78,1.35,1.35,0,0,1-.36-1.22c8.2-25.36,32.08-70.81,34.18-83a59.86,59.86,0,0,0-.19-22.14,38.88,38.88,0,0,1-20,5.11,39.38,39.38,0,0,1-19.49-4.8c-4.92-2.85-8.3-6.76-9.24-11.17a11.88,11.88,0,0,1-.27-2.53c0-10.22,13-18.5,29-18.5,10.91,0,20.41,3.84,25.36,9.52,8.43,8.23,12.57,24,9.64,41-1.92,11.15-7.81,43-15.85,60.94,12.83-4.13,28.38-6.43,44.85-6.43,28.68,0,52.72,7,65.06,18.42l7.94,1.58,26-11Z"/>
        <path class="cls-15" d="M3965.49,463.25c0,1-2.63,1.05-7,1-2.78-.05-6.28-.16-10.22-.16-10.1,0-18.29-1.29-18.29-2.87,0-1.2,9.55-4.55,18.58-6.12a49.35,49.35,0,0,1,8.31-.84C3967,454.24,3965.49,461.67,3965.49,463.25Z"/>
        <path class="cls-18" d="M4007.5,549.5s18-26,42-30,64,22,64,22l10,8-21,3s6,15-7,17-28,8-40,3"/>
      </g>
    </g>
    <circle class="nail cls-7" cx="4047" cy="258.5" r="17.5"/>
    <text class="year cls-8" transform="translate(3971.53 219.1)">1843</text>
  </g>
  <!-- 1837 - Den Lille Havfrue og Kejserens nye klæder -->
  <g id="event1837" class="event">
    <g class="image_frame">
      <rect id="frame-6" data-name="frame" class="cls-2" x="3372.5" y="371" width="283" height="336"/>
      <polyline class="cls-3" points="3372.5 371 3513.5 258 3655.5 371"/>
      <g id="image-7" data-name="image">
        <path class="cls-6" d="M3537.84,519.72c9.34,24.78,13.63,50.3,15.31,72.76.14,1.85.26,3.68.36,5.48a18.09,18.09,0,0,0-5-1c-17-1.06-25.64,19.76-43,18.93-6.16-.29-10.33-3.16-14.06-6.59q1.14-2,2.23-4c14.68-27,23.19-60,27.76-83a1.18,1.18,0,0,1,0-.2l-.95-.26h0c-7.85-2.35-17-8.9-24.56-18.4-12.77-15.95-50.3-45.74-39.84-45,19.06,1.41,56.72,5.28,69.5,21.22,12-16.43,48.81-22.8,67.54-25.48,10.39-1.49-25,30.81-36.64,47.61C3550.93,509.9,3544.24,516.11,3537.84,519.72Z"/>
        <path class="cls-17" d="M3634.5,597v6c-3.71-3.81-7.92-7-14-7.34-16.11-.84-24.43,19.79-41,18.93-12.56-.65-15.67-12.94-26-16.65a18.09,18.09,0,0,0-5-1c-17-1.06-25.64,19.76-43,18.93-6.16-.29-10.33-3.16-14.06-6.59-5.79-5.32-10.51-12-19.94-12.34-16.7-.66-23.71,19.3-41,18.93-14.31-.31-18.41-14.17-31-18.4v-5.36c13.38,3.81,17.32,18.4,32,18.71,17.29.37,24.3-19.59,41-18.93,10.09.4,14.79,8,21.17,13.42,3.43,2.93,7.34,5.24,12.83,5.51,17.36.83,26-20,43-18.93a17.74,17.74,0,0,1,3.65.59c11.44,3.07,14.25,16.4,27.35,17.08,16.57.86,24.89-19.77,41-18.93C3627,590.92,3631,593.62,3634.5,597Z"/>
      </g>
    </g>
    <circle class="nail cls-7" cx="3514" cy="258.5" r="17.5"/>
    <text class="year cls-8" transform="translate(3443.53 219.1)">1837</text>
  </g>
  <!-- 1835 - Fyrtøjet og Prinsessen På Ærten -->
  <g id="event1835" class="event">
    <g class="image_frame">
      <rect id="frame-7" data-name="frame" class="cls-2" x="2839.5" y="371" width="283" height="336"/>
      <polyline class="cls-3" points="2839.5 371 2981.5 258 3122.5 371"/>
      <g id="image-8" data-name="image">
        <rect class="cls-19" x="2974.24" y="489.07" width="29.78" height="16.84"/>
        <rect class="cls-4" x="2931.7" y="482.55" width="7.98" height="23.9"/>
        <rect class="cls-19" x="2920" y="503.19" width="94.66" height="113.53"/>
        <path class="cls-5" d="M2995.3,492.5c-6.79,1.73-17.69.69-22.54-7.94-3.48-6.2-2.85-14.56,1.09-19.47,4.36-5.42,9.69-2.82,14.06-8.23s4.31-14.54.87-20.37c-4.25-7.22-12.88-8-12.54-9.42.42-1.76,14.1-3.61,23.46,3.88,8.77,7,9.38,18.71,10.27,35.89.53,10-.75,14.53-3.29,18.08A20.19,20.19,0,0,1,2995.3,492.5Z"/>
        <path class="cls-13" d="M2989.7,487.44a12.46,12.46,0,0,1-11.36-10.71c-.83-5.24,1.08-11.14,4.25-13.82,3.49-3,6,.09,9.54-2.85s5.17-9.56,4.3-14.53c-1.08-6.15-5.85-8.61-5.39-9.57.57-1.18,8.71.5,12.65,8,3.69,7,1.85,15.59-.84,28.2-1.57,7.37-3.14,10.33-5.25,12.34A10.47,10.47,0,0,1,2989.7,487.44Z"/>
        <ellipse class="cls-6" cx="3030.46" cy="601.04" rx="42.54" ry="45.09"/>
        <ellipse class="cls-20" cx="3047.54" cy="583.66" rx="12.3" ry="13.04"/>
      </g>
    </g>
    <circle class="nail cls-7" cx="2981" cy="258.5" r="17.5"/>
    <text class="year cls-8" transform="translate(2899.53 219.1)">1835</text>
  </g>
  <!-- 1831 - Første egentlige digtsamling -->
  <g id="event1831" class="event">
    <g class="image_frame">
      <rect id="frame-8" data-name="frame" class="cls-2" x="2306.5" y="371" width="283" height="336"/>
      <polyline class="cls-3" points="2306.5 371 2448.5 258 2589.5 371"/>
      <g id="image-9" data-name="image">
        <rect class="cls-21" x="2377.61" y="410.5" width="156.39" height="217.45"/>
        <rect class="cls-21" x="2370.3" y="417.25" width="156.39" height="217.45"/>
        <g>
          <path class="cls-21" d="M2519.39,450.33V640H2363V422.55h130.12c14.37,0,26,12.2,26.27,27.34Z"/>
          <path class="cls-21" d="M2519.39,449.89c-8.09,6.95-16.25,3.46-27.38,2.3,8.69-12.05,7.82-19.05.07-29.64h1C2507.49,422.55,2519.16,434.75,2519.39,449.89Z"/>
          <line class="cls-21" x1="2373.51" y1="444.09" x2="2468.58" y2="444.09"/>
          <line class="cls-21" x1="2373.62" y1="463.19" x2="2508.99" y2="463.19"/>
          <line class="cls-21" x1="2373.62" y1="474.77" x2="2508.99" y2="474.77"/>
          <line class="cls-21" x1="2373.62" y1="486.35" x2="2508.99" y2="486.35"/>
          <line class="cls-21" x1="2373.62" y1="497.93" x2="2508.99" y2="497.93"/>
          <line class="cls-21" x1="2373.62" y1="509.51" x2="2508.99" y2="509.51"/>
          <line class="cls-21" x1="2373.62" y1="521.09" x2="2508.99" y2="521.09"/>
          <line class="cls-21" x1="2373.62" y1="532.67" x2="2508.99" y2="532.67"/>
          <line class="cls-21" x1="2373.62" y1="544.24" x2="2508.99" y2="544.24"/>
          <line class="cls-21" x1="2373.62" y1="555.82" x2="2508.99" y2="555.82"/>
          <line class="cls-21" x1="2373.62" y1="567.4" x2="2508.99" y2="567.4"/>
          <line class="cls-21" x1="2373.62" y1="578.98" x2="2508.99" y2="578.98"/>
          <line class="cls-21" x1="2373.62" y1="590.56" x2="2508.99" y2="590.56"/>
          <line class="cls-21" x1="2373.62" y1="602.14" x2="2508.99" y2="602.14"/>
          <line class="cls-21" x1="2373.62" y1="613.72" x2="2508.99" y2="613.72"/>
          <line class="cls-21" x1="2373.62" y1="625.3" x2="2508.99" y2="625.3"/>
        </g>
      </g>
    </g>
    <circle class="nail cls-7" cx="2448" cy="258.5" r="17.5"/>
    <text class="year cls-8" transform="translate(2379.53 219.1)">1831</text>
  </g>
  <!-- 1828 - Studentereksamen -->
  <g id="event1828" class="event">
    <g class="image_frame">
      <rect id="frame-9" data-name="frame" class="cls-2" x="1773.5" y="371" width="283" height="336"/>
      <polyline class="cls-3" points="1773.5 371 1915.5 258 2056.5 371"/>
      <g id="image-10" data-name="image">
        <path class="cls-18" d="M1863.4,487.49H2009a16.15,16.15,0,0,1,16.15,16.15v30.85a0,0,0,0,1,0,0h-181a0,0,0,0,1,0,0V506.76A19.27,19.27,0,0,1,1863.4,487.49Z" transform="translate(581.05 -962.69) rotate(32.64)"/>
        <rect class="cls-15" x="1825.53" y="529.04" width="181" height="22" transform="translate(593.78 -948.07) rotate(32.64)"/>
        <path class="cls-19" d="M1922.92,603.83c-38.31-24.53-75.82-72.58-66.23-88.89l130.15,82.33c.05,3.44-.15,7.72-.17,11.76C1986.55,627.65,1961.46,628.51,1922.92,603.83Z"/>
        <g>
          <path class="cls-22" d="M1979.68,540.43c-.32.49-1.17.6-1.52,1.05s-.28,1.31-.68,1.72-1.26.35-1.7.72-.54,1.22-1,1.54-1.31.08-1.82.35-.78,1.08-1.32,1.29-1.29-.2-1.85-.05-1,.89-1.57,1-1.21-.48-1.79-.46-1.17.64-1.75.59-1.07-.75-1.64-.86-1.28.34-1.84.15-.84-1-1.37-1.23-1.33,0-1.83-.3-.59-1.17-1-1.53-1.3-.32-1.7-.74-.29-1.27-.63-1.73-1.18-.62-1.47-1.13,0-1.3-.19-1.83-1-.88-1.17-1.44.32-1.26.23-1.83-.79-1.08-.82-1.66.59-1.16.62-1.74-.54-1.22-.45-1.79.83-1,1-1.57-.27-1.31-.06-1.85,1-.82,1.28-1.34,0-1.33.32-1.82,1.16-.6,1.52-1,.27-1.31.68-1.72,1.26-.35,1.7-.72.54-1.22,1-1.54,1.3-.08,1.81-.35.79-1.08,1.33-1.29,1.29.2,1.84,0,1-.89,1.58-1,1.21.48,1.79.46,1.17-.64,1.75-.59,1.06.75,1.63.86,1.29-.34,1.84-.15.85,1,1.38,1.23,1.33,0,1.82.3.59,1.17,1,1.53,1.3.32,1.69.74.29,1.27.63,1.73,1.19.62,1.47,1.13,0,1.3.2,1.83,1,.88,1.17,1.44-.33,1.26-.23,1.83.79,1.08.82,1.66-.59,1.16-.62,1.74.53,1.22.44,1.79-.82,1-1,1.57.27,1.31.06,1.85-1,.81-1.28,1.34S1980,539.93,1979.68,540.43Z"/>
          <path class="cls-11" d="M1979.68,540.43c-.32.49-1.17.6-1.52,1.05s-.28,1.31-.68,1.72-1.26.35-1.7.72-.54,1.22-1,1.54-1.31.08-1.82.35-.78,1.08-1.32,1.29-1.29-.2-1.85-.05-1,.89-1.57,1-1.21-.48-1.79-.46-1.17.64-1.75.59-1.07-.75-1.64-.86-1.28.34-1.84.15-.84-1-1.37-1.23-1.33,0-1.83-.3-.59-1.17-1-1.53-1.3-.32-1.7-.74-.29-1.27-.63-1.73-1.18-.62-1.47-1.13,0-1.3-.19-1.83-1-.88-1.17-1.44.32-1.26.23-1.83-.79-1.08-.82-1.66.59-1.16.62-1.74-.54-1.22-.45-1.79.83-1,1-1.57-.27-1.31-.06-1.85,1-.82,1.28-1.34,0-1.33.32-1.82,1.16-.6,1.52-1,.27-1.31.68-1.72,1.26-.35,1.7-.72.54-1.22,1-1.54,1.3-.08,1.81-.35.79-1.08,1.33-1.29,1.29.2,1.84,0,1-.89,1.58-1,1.21.48,1.79.46,1.17-.64,1.75-.59,1.06.75,1.63.86,1.29-.34,1.84-.15.85,1,1.38,1.23,1.33,0,1.82.3.59,1.17,1,1.53,1.3.32,1.69.74.29,1.27.63,1.73,1.19.62,1.47,1.13,0,1.3.2,1.83,1,.88,1.17,1.44-.33,1.26-.23,1.83.79,1.08.82,1.66-.59,1.16-.62,1.74.53,1.22.44,1.79-.82,1-1,1.57.27,1.31.06,1.85-1,.81-1.28,1.34S1980,539.93,1979.68,540.43Z"/>
        </g>
        <ellipse class="cls-5" cx="1967.05" cy="531.75" rx="5.5" ry="5" transform="translate(458.4 1901.43) rotate(-57.36)"/>
        <g>
          <path class="cls-10" d="M1974.19,520.61c-.47-.3-.68-1-1.17-1.26s-1.2.08-1.72-.08-.92-.82-1.46-.91-1.13.4-1.68.37-1.1-.55-1.64-.5-1,.67-1.53.78-1.2-.26-1.72-.09-.81.89-1.3,1.13-1.23,0-1.69.31-.59,1-1,1.39-1.19.29-1.58.68-.33,1.15-.68,1.58-1.1.54-1.4,1-.08,1.21-.32,1.69-1,.78-1.15,1.28.17,1.2,0,1.72-.77,1-.84,1.5.44,1.13.43,1.67-.53,1.11-.48,1.65.69,1,.8,1.52-.25,1.21-.07,1.72.9.8,1.15,1.29,0,1.23.36,1.68,1.07.53,1.43.94.37,1.17.79,1.53,1.18.23,1.64.53.68,1,1.17,1.26,1.2-.08,1.71.08.93.82,1.46.91,1.14-.4,1.68-.38,1.1.56,1.65.51,1-.67,1.53-.78,1.2.26,1.71.09.81-.89,1.31-1.13,1.22,0,1.69-.31.58-1.05,1-1.39,1.19-.29,1.58-.68.34-1.15.68-1.58,1.1-.54,1.4-1,.09-1.21.33-1.69,1-.78,1.15-1.28-.17-1.2,0-1.72.77-1,.84-1.5-.43-1.13-.42-1.67.53-1.11.47-1.65-.68-1-.8-1.53.26-1.2.07-1.71-.9-.8-1.14-1.29-.05-1.23-.36-1.68-1.07-.54-1.44-.94-.37-1.18-.79-1.53S1974.65,520.91,1974.19,520.61Zm-14,21.9c-.39-.26-.44-1-.79-1.27s-1.07-.24-1.37-.58-.17-1-.42-1.43-1-.52-1.18-.93.12-1,0-1.49-.8-.74-.9-1.19.38-1,.33-1.46-.6-.9-.59-1.37.59-.88.66-1.34-.39-1-.27-1.47.77-.73.93-1.16-.15-1.08.06-1.5.91-.54,1.16-.93.08-1.1.37-1.45,1-.35,1.33-.68.31-1,.66-1.34,1.07-.12,1.45-.36.53-1,1-1.16,1.06.12,1.49,0,.73-.81,1.18-.91,1,.37,1.46.32.91-.61,1.37-.59.87.6,1.33.68,1-.36,1.48-.22.68.81,1.1,1,1.09-.07,1.48.18.44,1,.79,1.27,1.07.24,1.38.58.16,1.05.42,1.43,1,.51,1.17.93-.12,1.05,0,1.49.81.74.9,1.19-.37,1-.33,1.46.61.9.6,1.37-.6.88-.66,1.34.38,1,.27,1.47-.77.72-.94,1.16.16,1.08,0,1.5-.91.54-1.17.93-.07,1.1-.36,1.45-1,.35-1.33.68-.31,1-.67,1.33-1.06.13-1.45.37-.53,1-.94,1.16-1.06-.12-1.49,0-.74.81-1.19.91-1-.37-1.46-.32-.9.6-1.37.59-.87-.6-1.33-.68-1,.36-1.47.22-.68-.81-1.11-1S1960.56,542.76,1960.16,542.51Z"/>
          <path class="cls-11" d="M1974.19,520.61c-.47-.3-.68-1-1.17-1.26s-1.2.08-1.72-.08-.92-.82-1.46-.91-1.13.4-1.68.37-1.1-.55-1.64-.5-1,.67-1.53.78-1.2-.26-1.72-.09-.81.89-1.3,1.13-1.23,0-1.69.31-.59,1-1,1.39-1.19.29-1.58.68-.33,1.15-.68,1.58-1.1.54-1.4,1-.08,1.21-.32,1.69-1,.78-1.15,1.28.17,1.2,0,1.72-.77,1-.84,1.5.44,1.13.43,1.67-.53,1.11-.48,1.65.69,1,.8,1.52-.25,1.21-.07,1.72.9.8,1.15,1.29,0,1.23.36,1.68,1.07.53,1.43.94.37,1.17.79,1.53,1.18.23,1.64.53.68,1,1.17,1.26,1.2-.08,1.71.08.93.82,1.46.91,1.14-.4,1.68-.38,1.1.56,1.65.51,1-.67,1.53-.78,1.2.26,1.71.09.81-.89,1.31-1.13,1.22,0,1.69-.31.58-1.05,1-1.39,1.19-.29,1.58-.68.34-1.15.68-1.58,1.1-.54,1.4-1,.09-1.21.33-1.69,1-.78,1.15-1.28-.17-1.2,0-1.72.77-1,.84-1.5-.43-1.13-.42-1.67.53-1.11.47-1.65-.68-1-.8-1.53.26-1.2.07-1.71-.9-.8-1.14-1.29-.05-1.23-.36-1.68-1.07-.54-1.44-.94-.37-1.18-.79-1.53S1974.65,520.91,1974.19,520.61Zm-14,21.9c-.39-.26-.44-1-.79-1.27s-1.07-.24-1.37-.58-.17-1-.42-1.43-1-.52-1.18-.93.12-1,0-1.49-.8-.74-.9-1.19.38-1,.33-1.46-.6-.9-.59-1.37.59-.88.66-1.34-.39-1-.27-1.47.77-.73.93-1.16-.15-1.08.06-1.5.91-.54,1.16-.93.08-1.1.37-1.45,1-.35,1.33-.68.31-1,.66-1.34,1.07-.12,1.45-.36.53-1,1-1.16,1.06.12,1.49,0,.73-.81,1.18-.91,1,.37,1.46.32.91-.61,1.37-.59.87.6,1.33.68,1-.36,1.48-.22.68.81,1.1,1,1.09-.07,1.48.18.44,1,.79,1.27,1.07.24,1.38.58.16,1.05.42,1.43,1,.51,1.17.93-.12,1.05,0,1.49.81.74.9,1.19-.37,1-.33,1.46.61.9.6,1.37-.6.88-.66,1.34.38,1,.27,1.47-.77.72-.94,1.16.16,1.08,0,1.5-.91.54-1.17.93-.07,1.1-.36,1.45-1,.35-1.33.68-.31,1-.67,1.33-1.06.13-1.45.37-.53,1-.94,1.16-1.06-.12-1.49,0-.74.81-1.19.91-1-.37-1.46-.32-.9.6-1.37.59-.87-.6-1.33-.68-1,.36-1.47.22-.68-.81-1.11-1S1960.56,542.76,1960.16,542.51Z"/>
        </g>
        <rect class="cls-19" x="1825.79" y="535.12" width="181" height="9" transform="translate(593.6 -948.28) rotate(32.64)"/>
      </g>
    </g>
    <circle class="nail cls-7" cx="1915" cy="258.5" r="17.5"/>
    <text class="year cls-8" transform="translate(1847.53 219.1)">1828</text>
  </g>
  <!-- 1827 - Udgivet Det Dødende Barn -->
  <g id="event1827" class="event">
    <g class="image_frame">
      <rect id="frame-10" data-name="frame" class="cls-2" x="1240.5" y="371" width="283" height="336"/>
      <polyline class="cls-3" points="1240.5 371 1382.5 258 1523.5 371"/>
      <g id="image-11" data-name="image">
        <ellipse class="cls-21" cx="1370.5" cy="522.5" rx="24" ry="26"/>
        <polygon class="cls-13" points="1324.5 630.5 1341.5 572.5 1349.5 515.5 1370.5 538.5 1396.5 531.5 1429 633 1324.5 630.5"/>
        <g>
          <path class="cls-23" d="M1383.71,524.62a23,23,0,0,1-8.88-1.74c-7.63-3.16-13.11-10.24-15.42-19.95s-1.17-20.91,3.21-31.5c7.2-17.38,22.05-29.52,36.12-29.52a23,23,0,0,1,8.88,1.74c15.77,6.53,21.24,29.61,12.2,51.45-7.19,17.38-22,29.52-36.11,29.52Z"/>
          <path d="M1398.74,442a23.12,23.12,0,0,1,8.83,1.73c7.6,3.15,13,10.2,15.34,19.87s1.17,20.86-3.2,31.42c-7.18,17.34-22,29.45-36,29.45a23.17,23.17,0,0,1-8.84-1.73c-15.7-6.51-21.15-29.51-12.13-51.29,7.17-17.34,22-29.45,36-29.45m0-.25c-13.87,0-28.79,11.62-36.23,29.6-9.08,21.94-3.59,45,12.27,51.62a23.29,23.29,0,0,0,8.93,1.75c13.87,0,28.79-11.62,36.23-29.6,9.08-21.94,3.59-45-12.27-51.62a23.33,23.33,0,0,0-8.93-1.75Z"/>
        </g>
        <g>
          <path class="cls-24" d="M1410.38,610.86l-.69,0c-5.75-.25-11-3.7-14.83-9.7s-5.72-13.87-5.35-22.12c.75-16.78,10.52-29.92,22.25-29.92l.69,0c11.88.53,20.94,14.81,20.18,31.82-.75,16.78-10.52,29.92-22.25,29.92Z"/>
          <path d="M1411.76,549.23h.68c11.82.53,20.82,14.75,20.07,31.7-.36,8-2.86,15.57-7,21.17s-9.52,8.62-15.09,8.62h-.68c-11.82-.53-20.82-14.75-20.07-31.7.36-8,2.86-15.57,7-21.17s9.51-8.62,15.09-8.62m0-.25c-11.68,0-21.63,13.25-22.38,30-.76,17.12,8.33,31.42,20.31,32h.69c11.68,0,21.63-13.25,22.38-30,.76-17.11-8.33-31.42-20.31-32Z"/>
        </g>
        <g>
          <path class="cls-25" d="M1406.56,560.83c-11.78,0-22.16-9.51-24.14-22.12a26.79,26.79,0,0,1,4.06-19.16A22.81,22.81,0,0,1,1402,509.44a22.53,22.53,0,0,1,3.47-.27c11.78,0,22.16,9.51,24.14,22.12a26.79,26.79,0,0,1-4.06,19.16A22.81,22.81,0,0,1,1410,560.56a22.44,22.44,0,0,1-3.47.27Z"/>
          <path d="M1405.44,509.29c11.72,0,22,9.47,24,22a26.71,26.71,0,0,1-4,19.08A22.73,22.73,0,0,1,1410,560.44a22.18,22.18,0,0,1-3.45.27c-11.72,0-22-9.47-24-22a26.71,26.71,0,0,1,4-19.08A22.73,22.73,0,0,1,1402,509.56a22.18,22.18,0,0,1,3.45-.27m0-.25a21.79,21.79,0,0,0-3.49.28c-13.09,2.06-21.89,15.23-19.66,29.41,2,12.92,12.53,22.23,24.27,22.23a21.79,21.79,0,0,0,3.49-.28c13.09-2.06,21.89-15.23,19.66-29.41-2-12.92-12.53-22.23-24.27-22.23Z"/>
        </g>
        <ellipse class="cls-21" cx="1417.05" cy="568.77" rx="14.5" ry="11.2" transform="translate(116.76 1369.26) rotate(-53.49)"/>
        <path class="cls-13" d="M1357.5,544.5c-7,16,19,32,23,34s26-8,26-8l14,10s-17,13-33,22-44.63-15.46-53-26c-12.93-16.28,7.77-63.25,12.5-51.5"/>
        <ellipse class="cls-21" cx="1410.05" cy="611.77" rx="14.5" ry="11.2" transform="translate(-87.11 263.88) rotate(-10.37)"/>
        <path class="cls-13" d="M1432.5,584.5l3.06,12.75a16.7,16.7,0,0,1-8,18.44l-9.39,5.3-3.51-19.5,10.87-4Z"/>
        <path class="cls-26" d="M1369.5,474.5l35.44-19a8.8,8.8,0,0,1,11.8,3.41l8.59,15.07s17.17-4.52,5.17-22.52-26-31-46-20-45,21-49,40-27,43-12,51,26,12,30,6S1372.5,514.5,1369.5,474.5Z"/>
        <g>
          <path class="cls-12" d="M1380,501.88a3.76,3.76,0,0,1-3.88-3.62c0-2,2.67-7.14,4.8-7.14s3,5.11,3,7.14A3.76,3.76,0,0,1,1380,501.88Z"/>
          <path d="M1380.92,491.25c2,0,2.83,5,2.83,7a3.76,3.76,0,0,1-7.5,0,10,10,0,0,1,1.6-4.27c1.05-1.72,2.2-2.74,3.07-2.74m0-.25c-2.21,0-4.92,5.19-4.92,7.26a4,4,0,0,0,8,0c0-2.07-.87-7.26-3.08-7.26Z"/>
        </g>
      </g>
    </g>
    <circle class="nail cls-7"  cx="1382" cy="258.5" r="17.5"/>
    <text class="year cls-8" transform="translate(1313.53 219.1)">1827</text>
  </g>
  <!-- 1819 - Rejste til København -->
  <g id="event1819" class="event">
    <g class="image_frame">
      <rect id="frame-11" data-name="frame" class="cls-2" x="707.5" y="371" width="283" height="336"/>
      <polyline class="cls-3" points="707.5 371 848.5 258 990.5 371"/>
      <g id="image-12" data-name="image">
        <g>
          <rect class="cls-22" x="899.51" y="577.13" width="61.36" height="72.75"/>
          <path d="M960.75,577.25v72.5H899.64v-72.5h61.11M961,577H899.39v73H961V577Z"/>
        </g>
        <g>
          <path class="cls-27" d="M899.31,577.88a.14.14,0,0,1-.1-.07.62.62,0,0,1-.05-.53l5.14-15c0-.1.1-.18.15-.18h56.24c.08,0,.19.15.19.39v15c0,.24-.11.39-.19.39Z"/>
          <path d="M960.67,562.25a.35.35,0,0,1,.08.26v15a.59.59,0,0,1-.06.26H899.33a.45.45,0,0,1-.05-.43l5.14-15c0-.06.05-.09,0-.09h56.22m0-.25H904.45c-.11,0-.21.1-.27.26l-5.14,15c-.12.34,0,.76.27.76h61.38c.17,0,.31-.23.31-.51v-15c0-.28-.14-.51-.31-.51Z"/>
        </g>
        <g>
          <rect class="cls-22" x="797.88" y="430.63" width="35" height="219.75"/>
          <path d="M832.75,430.75v219.5H798V430.75h34.75m.25-.25H797.75v220H833v-220Z"/>
        </g>
        <g>
          <rect class="cls-28" x="832.13" y="430.63" width="42.25" height="219.75"/>
          <path d="M874.25,430.75v219.5h-42V430.75h42m.25-.25H832v220h42.5v-220Z"/>
        </g>
        <g>
          <rect class="cls-22" x="873.63" y="430.63" width="31.75" height="219.75"/>
          <path d="M905.25,430.75v219.5h-31.5V430.75h31.5m.25-.25h-32v220h32v-220Z"/>
        </g>
        <g>
          <rect class="cls-22" x="793.13" y="429.13" width="119.75" height="2.75"/>
          <path d="M912.75,429.25v2.5H793.25v-2.5h119.5M913,429H793v3H913v-3Z"/>
        </g>
        <g>
          <rect class="cls-22" x="829.13" y="415.13" width="47.75" height="14.75"/>
          <path d="M876.75,415.25v14.5h-47.5v-14.5h47.5M877,415H829v15h48V415Z"/>
        </g>
        <g>
          <path class="cls-29" d="M829.15,415.88c0-.29,0-.58,0-.88,0-12.06,10.71-21.88,23.88-21.88s23.88,9.82,23.88,21.88c0,.3,0,.59,0,.88Z"/>
          <path d="M853,393.25c13.1,0,23.75,9.76,23.75,21.75,0,.25,0,.5,0,.75H829.27c0-.25,0-.5,0-.75,0-12,10.65-21.75,23.75-21.75m0-.25c-13.25,0-24,9.85-24,22,0,.34,0,.67,0,1H877c0-.33,0-.66,0-1,0-12.15-10.75-22-24-22Z"/>
        </g>
        <g>
          <rect class="cls-25" x="795.63" y="423.13" width="114.75" height="6.75"/>
          <path d="M910.25,423.25v6.5H795.75v-6.5h114.5m.25-.25h-115v7h115v-7Z"/>
        </g>
        <g>
          <path class="cls-30" d="M880.12,469.88V453a5.54,5.54,0,0,1,.08-1,8.85,8.85,0,0,1,17.6,0,5.75,5.75,0,0,1,.08,1v16.88Z"/>
          <path d="M889,444.25a8.71,8.71,0,0,1,8.68,7.79,5.39,5.39,0,0,1,.07,1v16.75h-17.5V453a5.58,5.58,0,0,1,.07-1,8.71,8.71,0,0,1,8.68-7.78m0-.25a9,9,0,0,0-8.93,8,6.54,6.54,0,0,0-.07,1v17h18V453a6.54,6.54,0,0,0-.07-1,9,9,0,0,0-8.93-8Z"/>
        </g>
        <g>
          <path class="cls-31" d="M890.12,469.88v-10.4c0-.21,0-.42,0-.61.14-2.72,1.17-4.84,2.36-4.84s2.22,2.12,2.36,4.83c0,.2,0,.41,0,.62v10.4Z"/>
          <path d="M892.5,454.15c1.12,0,2.1,2.08,2.23,4.73a5.82,5.82,0,0,1,0,.6v10.27h-4.5V459.48c0-.21,0-.41,0-.61.13-2.64,1.11-4.72,2.23-4.72m0-.25c-1.29,0-2.34,2.17-2.48,5,0,.2,0,.41,0,.62V470h5V459.48c0-.21,0-.42,0-.62-.14-2.79-1.19-5-2.48-5Z"/>
        </g>
        <g>
          <path class="cls-30" d="M880.12,509.88V493a5.54,5.54,0,0,1,.08-1,8.85,8.85,0,0,1,17.6,0,5.75,5.75,0,0,1,.08,1v16.88Z"/>
          <path d="M889,484.25a8.71,8.71,0,0,1,8.68,7.79,5.39,5.39,0,0,1,.07,1v16.75h-17.5V493a5.58,5.58,0,0,1,.07-1,8.71,8.71,0,0,1,8.68-7.78m0-.25a9,9,0,0,0-8.93,8,6.54,6.54,0,0,0-.07,1v17h18V493a6.54,6.54,0,0,0-.07-1,9,9,0,0,0-8.93-8Z"/>
        </g>
        <g>
          <path class="cls-31" d="M890.12,509.88v-10.4c0-.21,0-.42,0-.61.14-2.72,1.17-4.84,2.36-4.84s2.22,2.12,2.36,4.83c0,.2,0,.41,0,.62v10.4Z"/>
          <path d="M892.5,494.15c1.12,0,2.1,2.08,2.23,4.73a5.82,5.82,0,0,1,0,.6v10.27h-4.5V499.48c0-.21,0-.41,0-.61.13-2.64,1.11-4.72,2.23-4.72m0-.25c-1.29,0-2.34,2.17-2.48,5,0,.2,0,.41,0,.62V510h5V499.48c0-.21,0-.42,0-.62-.14-2.79-1.19-5-2.48-5Z"/>
        </g>
        <g>
          <path class="cls-30" d="M880.12,546.88V530a5.54,5.54,0,0,1,.08-1,8.85,8.85,0,0,1,17.6,0,5.75,5.75,0,0,1,.08,1v16.88Z"/>
          <path d="M889,521.25a8.71,8.71,0,0,1,8.68,7.79,5.39,5.39,0,0,1,.07,1v16.75h-17.5V530a5.58,5.58,0,0,1,.07-1,8.71,8.71,0,0,1,8.68-7.78m0-.25a9,9,0,0,0-8.93,8,6.54,6.54,0,0,0-.07,1v17h18V530a6.54,6.54,0,0,0-.07-1,9,9,0,0,0-8.93-8Z"/>
        </g>
        <g>
          <path class="cls-31" d="M890.12,546.88v-10.4c0-.21,0-.42,0-.61.14-2.72,1.17-4.84,2.36-4.84s2.22,2.12,2.36,4.83c0,.2,0,.41,0,.62v10.4Z"/>
          <path d="M892.5,531.15c1.12,0,2.1,2.08,2.23,4.73a5.82,5.82,0,0,1,0,.6v10.27h-4.5V536.48c0-.21,0-.41,0-.61.13-2.64,1.11-4.72,2.23-4.72m0-.25c-1.29,0-2.34,2.17-2.48,5,0,.2,0,.41,0,.62V547h5V536.48c0-.21,0-.42,0-.62-.14-2.79-1.19-5-2.48-5Z"/>
        </g>
        <g>
          <path class="cls-30" d="M880.12,581.88V565a5.54,5.54,0,0,1,.08-1,8.85,8.85,0,0,1,17.6,0,5.75,5.75,0,0,1,.08,1v16.88Z"/>
          <path d="M889,556.25a8.71,8.71,0,0,1,8.68,7.79,5.39,5.39,0,0,1,.07,1v16.75h-17.5V565a5.58,5.58,0,0,1,.07-1,8.71,8.71,0,0,1,8.68-7.78m0-.25a9,9,0,0,0-8.93,8,6.54,6.54,0,0,0-.07,1v17h18V565a6.54,6.54,0,0,0-.07-1,9,9,0,0,0-8.93-8Z"/>
        </g>
        <g>
          <path class="cls-31" d="M890.12,581.88v-10.4c0-.21,0-.42,0-.61.14-2.72,1.17-4.84,2.36-4.84s2.22,2.12,2.36,4.83c0,.2,0,.41,0,.62v10.4Z"/>
          <path d="M892.5,566.15c1.12,0,2.1,2.08,2.23,4.73a5.82,5.82,0,0,1,0,.6v10.27h-4.5V571.48c0-.21,0-.41,0-.61.13-2.64,1.11-4.72,2.23-4.72m0-.25c-1.29,0-2.34,2.17-2.48,5,0,.2,0,.41,0,.62V582h5V571.48c0-.21,0-.42,0-.62-.14-2.79-1.19-5-2.48-5Z"/>
        </g>
        <g>
          <path class="cls-30" d="M880.12,617.88V601a5.54,5.54,0,0,1,.08-1,8.85,8.85,0,0,1,17.6,0,5.75,5.75,0,0,1,.08,1v16.88Z"/>
          <path d="M889,592.25a8.71,8.71,0,0,1,8.68,7.79,5.39,5.39,0,0,1,.07,1v16.75h-17.5V601a5.58,5.58,0,0,1,.07-1,8.71,8.71,0,0,1,8.68-7.78m0-.25a9,9,0,0,0-8.93,8,6.54,6.54,0,0,0-.07,1v17h18V601a6.54,6.54,0,0,0-.07-1,9,9,0,0,0-8.93-8Z"/>
        </g>
        <g>
          <path class="cls-31" d="M890.12,617.88v-10.4c0-.21,0-.42,0-.61.14-2.72,1.17-4.84,2.36-4.84s2.22,2.12,2.36,4.83c0,.2,0,.41,0,.62v10.4Z"/>
          <path d="M892.5,602.15c1.12,0,2.1,2.08,2.23,4.73a5.82,5.82,0,0,1,0,.6v10.27h-4.5V607.48c0-.21,0-.41,0-.61.13-2.64,1.11-4.72,2.23-4.72m0-.25c-1.29,0-2.34,2.17-2.48,5,0,.2,0,.41,0,.62V618h5V607.48c0-.21,0-.42,0-.62-.14-2.79-1.19-5-2.48-5Z"/>
        </g>
        <g>
          <path class="cls-30" d="M805.12,471.88V455a5.54,5.54,0,0,1,.08-1,8.85,8.85,0,0,1,17.6,0,5.75,5.75,0,0,1,.08,1v16.88Z"/>
          <path d="M814,446.25a8.71,8.71,0,0,1,8.68,7.79,5.39,5.39,0,0,1,.07,1v16.75h-17.5V455a5.58,5.58,0,0,1,.07-1,8.71,8.71,0,0,1,8.68-7.78m0-.25a9,9,0,0,0-8.93,8,6.54,6.54,0,0,0-.07,1v17h18V455a6.54,6.54,0,0,0-.07-1,9,9,0,0,0-8.93-8Z"/>
        </g>
        <g>
          <path class="cls-31" d="M815.12,471.88v-10.4c0-.21,0-.42,0-.61.14-2.72,1.17-4.84,2.36-4.84s2.22,2.12,2.35,4.83c0,.2,0,.41,0,.62v10.4Z"/>
          <path d="M817.5,456.15c1.12,0,2.1,2.08,2.23,4.73a5.82,5.82,0,0,1,0,.6v10.27h-4.5V461.48c0-.21,0-.41,0-.61.13-2.64,1.11-4.72,2.23-4.72m0-.25c-1.29,0-2.35,2.17-2.48,5,0,.2,0,.41,0,.62V472h5V461.48c0-.21,0-.42,0-.62-.13-2.79-1.19-5-2.48-5Z"/>
        </g>
        <g>
          <path class="cls-30" d="M805.12,511.88V495a5.54,5.54,0,0,1,.08-1,8.85,8.85,0,0,1,17.6,0,5.75,5.75,0,0,1,.08,1v16.88Z"/>
          <path d="M814,486.25a8.71,8.71,0,0,1,8.68,7.79,5.39,5.39,0,0,1,.07,1v16.75h-17.5V495a5.58,5.58,0,0,1,.07-1,8.71,8.71,0,0,1,8.68-7.78m0-.25a9,9,0,0,0-8.93,8,6.54,6.54,0,0,0-.07,1v17h18V495a6.54,6.54,0,0,0-.07-1,9,9,0,0,0-8.93-8Z"/>
        </g>
        <g>
          <path class="cls-31" d="M815.12,511.88v-10.4c0-.21,0-.42,0-.61.14-2.72,1.17-4.84,2.36-4.84s2.22,2.12,2.35,4.83c0,.2,0,.41,0,.62v10.4Z"/>
          <path d="M817.5,496.15c1.12,0,2.1,2.08,2.23,4.73a5.82,5.82,0,0,1,0,.6v10.27h-4.5V501.48c0-.21,0-.41,0-.61.13-2.64,1.11-4.72,2.23-4.72m0-.25c-1.29,0-2.35,2.17-2.48,5,0,.2,0,.41,0,.62V512h5V501.48c0-.21,0-.42,0-.62-.13-2.79-1.19-5-2.48-5Z"/>
        </g>
        <g>
          <path class="cls-30" d="M805.12,548.88V532a5.54,5.54,0,0,1,.08-1,8.85,8.85,0,0,1,17.6,0,5.75,5.75,0,0,1,.08,1v16.88Z"/>
          <path d="M814,523.25a8.71,8.71,0,0,1,8.68,7.79,5.39,5.39,0,0,1,.07,1v16.75h-17.5V532a5.58,5.58,0,0,1,.07-1,8.71,8.71,0,0,1,8.68-7.78m0-.25a9,9,0,0,0-8.93,8,6.54,6.54,0,0,0-.07,1v17h18V532a6.54,6.54,0,0,0-.07-1,9,9,0,0,0-8.93-8Z"/>
        </g>
        <g>
          <path class="cls-31" d="M815.12,548.88v-10.4c0-.21,0-.42,0-.61.14-2.72,1.17-4.84,2.36-4.84s2.22,2.12,2.35,4.83c0,.2,0,.41,0,.62v10.4Z"/>
          <path d="M817.5,533.15c1.12,0,2.1,2.08,2.23,4.73a5.82,5.82,0,0,1,0,.6v10.27h-4.5V538.48c0-.21,0-.41,0-.61.13-2.64,1.11-4.72,2.23-4.72m0-.25c-1.29,0-2.35,2.17-2.48,5,0,.2,0,.41,0,.62V549h5V538.48c0-.21,0-.42,0-.62-.13-2.79-1.19-5-2.48-5Z"/>
        </g>
        <g>
          <path class="cls-30" d="M805.12,583.88V567a5.54,5.54,0,0,1,.08-1,8.85,8.85,0,0,1,17.6,0,5.75,5.75,0,0,1,.08,1v16.88Z"/>
          <path d="M814,558.25a8.71,8.71,0,0,1,8.68,7.79,5.39,5.39,0,0,1,.07,1v16.75h-17.5V567a5.58,5.58,0,0,1,.07-1,8.71,8.71,0,0,1,8.68-7.78m0-.25a9,9,0,0,0-8.93,8,6.54,6.54,0,0,0-.07,1v17h18V567a6.54,6.54,0,0,0-.07-1,9,9,0,0,0-8.93-8Z"/>
        </g>
        <g>
          <path class="cls-31" d="M815.12,583.88v-10.4c0-.21,0-.42,0-.61.14-2.72,1.17-4.84,2.36-4.84s2.22,2.12,2.35,4.83c0,.2,0,.41,0,.62v10.4Z"/>
          <path d="M817.5,568.15c1.12,0,2.1,2.08,2.23,4.73a5.82,5.82,0,0,1,0,.6v10.27h-4.5V573.48c0-.21,0-.41,0-.61.13-2.64,1.11-4.72,2.23-4.72m0-.25c-1.29,0-2.35,2.17-2.48,5,0,.2,0,.41,0,.62V584h5V573.48c0-.21,0-.42,0-.62-.13-2.79-1.19-5-2.48-5Z"/>
        </g>
        <g>
          <path class="cls-30" d="M805.12,619.88V603a5.54,5.54,0,0,1,.08-1,8.85,8.85,0,0,1,17.6,0,5.75,5.75,0,0,1,.08,1v16.88Z"/>
          <path d="M814,594.25a8.71,8.71,0,0,1,8.68,7.79,5.39,5.39,0,0,1,.07,1v16.75h-17.5V603a5.58,5.58,0,0,1,.07-1,8.71,8.71,0,0,1,8.68-7.78m0-.25a9,9,0,0,0-8.93,8,6.54,6.54,0,0,0-.07,1v17h18V603a6.54,6.54,0,0,0-.07-1,9,9,0,0,0-8.93-8Z"/>
        </g>
        <g>
          <path class="cls-31" d="M815.12,619.88v-10.4c0-.21,0-.42,0-.61.14-2.72,1.17-4.84,2.36-4.84s2.22,2.12,2.35,4.83c0,.2,0,.41,0,.62v10.4Z"/>
          <path d="M817.5,604.15c1.12,0,2.1,2.08,2.23,4.73a5.82,5.82,0,0,1,0,.6v10.27h-4.5V609.48c0-.21,0-.41,0-.61.13-2.64,1.11-4.72,2.23-4.72m0-.25c-1.29,0-2.35,2.17-2.48,5,0,.2,0,.41,0,.62V620h5V609.48c0-.21,0-.42,0-.62-.13-2.79-1.19-5-2.48-5Z"/>
        </g>
        <g>
          <path class="cls-23" d="M844.12,548.88V532a5.54,5.54,0,0,1,.08-1,8.85,8.85,0,0,1,17.6,0,5.75,5.75,0,0,1,.08,1v16.88Z"/>
          <path d="M853,523.25a8.71,8.71,0,0,1,8.68,7.79,5.39,5.39,0,0,1,.07,1v16.75h-17.5V532a5.58,5.58,0,0,1,.07-1,8.71,8.71,0,0,1,8.68-7.78m0-.25a9,9,0,0,0-8.93,8,6.54,6.54,0,0,0-.07,1v17h18V532a6.54,6.54,0,0,0-.07-1,9,9,0,0,0-8.93-8Z"/>
        </g>
        <g>
          <path class="cls-31" d="M854.12,548.88v-10.4c0-.21,0-.42,0-.61.14-2.72,1.17-4.84,2.36-4.84s2.22,2.12,2.36,4.83c0,.2,0,.41,0,.62v10.4Z"/>
          <path d="M856.5,533.15c1.12,0,2.1,2.08,2.23,4.73a5.82,5.82,0,0,1,0,.6v10.27h-4.5V538.48c0-.21,0-.41,0-.61.13-2.64,1.11-4.72,2.23-4.72m0-.25c-1.29,0-2.35,2.17-2.48,5,0,.2,0,.41,0,.62V549h5V538.48c0-.21,0-.42,0-.62-.14-2.79-1.19-5-2.48-5Z"/>
        </g>
        <g>
          <path class="cls-23" d="M844.12,583.88V567a5.54,5.54,0,0,1,.08-1,8.85,8.85,0,0,1,17.6,0,5.75,5.75,0,0,1,.08,1v16.88Z"/>
          <path d="M853,558.25a8.71,8.71,0,0,1,8.68,7.79,5.39,5.39,0,0,1,.07,1v16.75h-17.5V567a5.58,5.58,0,0,1,.07-1,8.71,8.71,0,0,1,8.68-7.78m0-.25a9,9,0,0,0-8.93,8,6.54,6.54,0,0,0-.07,1v17h18V567a6.54,6.54,0,0,0-.07-1,9,9,0,0,0-8.93-8Z"/>
        </g>
        <g>
          <path class="cls-31" d="M854.12,583.88v-10.4c0-.21,0-.42,0-.61.14-2.72,1.17-4.84,2.36-4.84s2.22,2.12,2.36,4.83c0,.2,0,.41,0,.62v10.4Z"/>
          <path d="M856.5,568.15c1.12,0,2.1,2.08,2.23,4.73a5.82,5.82,0,0,1,0,.6v10.27h-4.5V573.48c0-.21,0-.41,0-.61.13-2.64,1.11-4.72,2.23-4.72m0-.25c-1.29,0-2.35,2.17-2.48,5,0,.2,0,.41,0,.62V584h5V573.48c0-.21,0-.42,0-.62-.14-2.79-1.19-5-2.48-5Z"/>
        </g>
        <g>
          <path class="cls-22" d="M842.12,650.38V626.31a8.41,8.41,0,0,1,.1-1.41c.62-6.43,5.47-11.28,11.28-11.28s10.66,4.85,11.28,11.28a8.41,8.41,0,0,1,.1,1.41v24.07Z"/>
          <path d="M853.5,613.75c5.74,0,10.54,4.8,11.16,11.17a9.35,9.35,0,0,1,.09,1.39v23.94h-22.5V626.31a9.59,9.59,0,0,1,.09-1.4c.62-6.36,5.42-11.16,11.16-11.16m0-.25c-5.91,0-10.79,5-11.41,11.38a9.55,9.55,0,0,0-.09,1.43V650.5h23V626.31a9.55,9.55,0,0,0-.09-1.43c-.62-6.4-5.5-11.38-11.41-11.38Z"/>
        </g>
        <g>
          <path class="cls-28" d="M899.12,678.88V625a.92.92,0,0,1-.22-.5.56.56,0,0,1,.17-.42l31-31.93,30.79,31.73a.72.72,0,0,1,0,.92l0,54Z"/>
          <path d="M930.06,592.36,960.76,624a.59.59,0,0,1,0,.77l0,.07v53.92h-61.5V624.92l-.08-.07a.45.45,0,0,1-.14-.32.41.41,0,0,1,.13-.34l30.9-31.83m0-.36L899,624a.7.7,0,0,0,0,1v54h62V624.91a.84.84,0,0,0-.06-1.09L930.06,592Z"/>
        </g>
        <g>
          <path class="cls-10" d="M840.11,484.88l-2-11.9a2.84,2.84,0,0,1,1.44-2.24l.06,0-.06-1,1.07.38h.1A28.4,28.4,0,0,1,851,468.17h.07l1.29-1.94,1.29,1.94h.07c4.46.11,8.36.84,10.71,2l1.39-.45-.07,1.27,0,0a2.59,2.59,0,0,1,1.09,2l-2,11.88Z"/>
          <path d="M852.35,466.45l1.15,1.74.07.11h.13c4.45.11,8.33.83,10.67,2l.09.05.1,0,1.12-.4-.06,1V471l.1.08a2.48,2.48,0,0,1,1,1.85l-2,11.79H840.21l-2-11.75a2.73,2.73,0,0,1,1.38-2.16l.12-.08v-.13l0-.74.89.32h.15l0,0c2.27-1.07,6-1.76,10.21-1.9h.13l.07-.11,1.15-1.74m0-.45L851,468.05c-4,.13-7.86.77-10.31,1.92h0l-1.24-.44.06,1.11A3,3,0,0,0,838,473l2,12h25l2-12a2.71,2.71,0,0,0-1.13-2.08l.08-1.39-1.47.52c-2.5-1.23-6.57-1.9-10.77-2L852.35,466Z"/>
        </g>
        <g>
          <path class="cls-22" d="M843.31,482.88a2.11,2.11,0,0,1-2.19-2,2.15,2.15,0,0,1,2-2,51.66,51.66,0,0,1,9.57-.92,47.08,47.08,0,0,1,9.27.92,2.17,2.17,0,0,1,2,2,2.11,2.11,0,0,1-2.19,2Z"/>
          <path d="M852.65,477.86v.25a46.78,46.78,0,0,1,9.24.92,2.06,2.06,0,0,1,1.86,1.86,2,2,0,0,1-2.06,1.86H843.31a2,2,0,0,1-2.06-1.86A2,2,0,0,1,843.1,479a51.45,51.45,0,0,1,9.55-.92v-.25m0,0a51.18,51.18,0,0,0-9.6.93,2.27,2.27,0,0,0-2,2.1h0a2.22,2.22,0,0,0,2.31,2.11h18.38a2.22,2.22,0,0,0,2.31-2.11h0a2.29,2.29,0,0,0-2.06-2.1,46.54,46.54,0,0,0-9.29-.93Z"/>
        </g>
        <g>
          <path class="cls-31" d="M883.12,469.88v-10.4c0-.21,0-.42,0-.61.14-2.72,1.17-4.84,2.36-4.84s2.22,2.12,2.36,4.83c0,.2,0,.41,0,.62v10.4Z"/>
          <path d="M885.5,454.15c1.12,0,2.1,2.08,2.23,4.73a5.82,5.82,0,0,1,0,.6v10.27h-4.5V459.48c0-.21,0-.41,0-.61.13-2.64,1.11-4.72,2.23-4.72m0-.25c-1.29,0-2.34,2.17-2.48,5,0,.2,0,.41,0,.62V470h5V459.48c0-.21,0-.42,0-.62-.14-2.79-1.19-5-2.48-5Z"/>
        </g>
        <g>
          <path class="cls-31" d="M883.12,509.88v-10.4c0-.21,0-.42,0-.61.14-2.72,1.17-4.84,2.36-4.84s2.22,2.12,2.36,4.83c0,.2,0,.41,0,.62v10.4Z"/>
          <path d="M885.5,494.15c1.12,0,2.1,2.08,2.23,4.73a5.82,5.82,0,0,1,0,.6v10.27h-4.5V499.48c0-.21,0-.41,0-.61.13-2.64,1.11-4.72,2.23-4.72m0-.25c-1.29,0-2.34,2.17-2.48,5,0,.2,0,.41,0,.62V510h5V499.48c0-.21,0-.42,0-.62-.14-2.79-1.19-5-2.48-5Z"/>
        </g>
        <g>
          <path class="cls-31" d="M883.12,546.88v-10.4c0-.21,0-.42,0-.61.14-2.72,1.17-4.84,2.36-4.84s2.22,2.12,2.36,4.83c0,.2,0,.41,0,.62v10.4Z"/>
          <path d="M885.5,531.15c1.12,0,2.1,2.08,2.23,4.73a5.82,5.82,0,0,1,0,.6v10.27h-4.5V536.48c0-.21,0-.41,0-.61.13-2.64,1.11-4.72,2.23-4.72m0-.25c-1.29,0-2.34,2.17-2.48,5,0,.2,0,.41,0,.62V547h5V536.48c0-.21,0-.42,0-.62-.14-2.79-1.19-5-2.48-5Z"/>
        </g>
        <g>
          <path class="cls-31" d="M883.12,581.88v-10.4c0-.21,0-.42,0-.61.14-2.72,1.17-4.84,2.36-4.84s2.22,2.12,2.36,4.83c0,.2,0,.41,0,.62v10.4Z"/>
          <path d="M885.5,566.15c1.12,0,2.1,2.08,2.23,4.73a5.82,5.82,0,0,1,0,.6v10.27h-4.5V571.48c0-.21,0-.41,0-.61.13-2.64,1.11-4.72,2.23-4.72m0-.25c-1.29,0-2.34,2.17-2.48,5,0,.2,0,.41,0,.62V582h5V571.48c0-.21,0-.42,0-.62-.14-2.79-1.19-5-2.48-5Z"/>
        </g>
        <g>
          <path class="cls-31" d="M883.12,617.88v-10.4c0-.21,0-.42,0-.61.14-2.72,1.17-4.84,2.36-4.84s2.22,2.12,2.36,4.83c0,.2,0,.41,0,.62v10.4Z"/>
          <path d="M885.5,602.15c1.12,0,2.1,2.08,2.23,4.73a5.82,5.82,0,0,1,0,.6v10.27h-4.5V607.48c0-.21,0-.41,0-.61.13-2.64,1.11-4.72,2.23-4.72m0-.25c-1.29,0-2.34,2.17-2.48,5,0,.2,0,.41,0,.62V618h5V607.48c0-.21,0-.42,0-.62-.14-2.79-1.19-5-2.48-5Z"/>
        </g>
        <g>
          <path class="cls-31" d="M808.12,471.88v-10.4c0-.21,0-.42,0-.61.14-2.72,1.17-4.84,2.36-4.84s2.22,2.12,2.35,4.83c0,.2,0,.41,0,.62v10.4Z"/>
          <path d="M810.5,456.15c1.12,0,2.1,2.08,2.23,4.73a5.82,5.82,0,0,1,0,.6v10.27h-4.5V461.48c0-.21,0-.41,0-.61.13-2.64,1.11-4.72,2.23-4.72m0-.25c-1.29,0-2.35,2.17-2.48,5,0,.2,0,.41,0,.62V472h5V461.48c0-.21,0-.42,0-.62-.13-2.79-1.19-5-2.48-5Z"/>
        </g>
        <g>
          <path class="cls-31" d="M808.12,511.88v-10.4c0-.21,0-.42,0-.61.14-2.72,1.17-4.84,2.36-4.84s2.22,2.12,2.35,4.83c0,.2,0,.41,0,.62v10.4Z"/>
          <path d="M810.5,496.15c1.12,0,2.1,2.08,2.23,4.73a5.82,5.82,0,0,1,0,.6v10.27h-4.5V501.48c0-.21,0-.41,0-.61.13-2.64,1.11-4.72,2.23-4.72m0-.25c-1.29,0-2.35,2.17-2.48,5,0,.2,0,.41,0,.62V512h5V501.48c0-.21,0-.42,0-.62-.13-2.79-1.19-5-2.48-5Z"/>
        </g>
        <g>
          <path class="cls-31" d="M808.12,548.88v-10.4c0-.21,0-.42,0-.61.14-2.72,1.17-4.84,2.36-4.84s2.22,2.12,2.35,4.83c0,.2,0,.41,0,.62v10.4Z"/>
          <path d="M810.5,533.15c1.12,0,2.1,2.08,2.23,4.73a5.82,5.82,0,0,1,0,.6v10.27h-4.5V538.48c0-.21,0-.41,0-.61.13-2.64,1.11-4.72,2.23-4.72m0-.25c-1.29,0-2.35,2.17-2.48,5,0,.2,0,.41,0,.62V549h5V538.48c0-.21,0-.42,0-.62-.13-2.79-1.19-5-2.48-5Z"/>
        </g>
        <g>
          <path class="cls-31" d="M808.12,583.88v-10.4c0-.21,0-.42,0-.61.14-2.72,1.17-4.84,2.36-4.84s2.22,2.12,2.35,4.83c0,.2,0,.41,0,.62v10.4Z"/>
          <path d="M810.5,568.15c1.12,0,2.1,2.08,2.23,4.73a5.82,5.82,0,0,1,0,.6v10.27h-4.5V573.48c0-.21,0-.41,0-.61.13-2.64,1.11-4.72,2.23-4.72m0-.25c-1.29,0-2.35,2.17-2.48,5,0,.2,0,.41,0,.62V584h5V573.48c0-.21,0-.42,0-.62-.13-2.79-1.19-5-2.48-5Z"/>
        </g>
        <g>
          <path class="cls-31" d="M847.12,548.88v-10.4c0-.21,0-.42,0-.61.14-2.72,1.17-4.84,2.36-4.84s2.22,2.12,2.35,4.83c0,.2,0,.41,0,.62v10.4Z"/>
          <path d="M849.5,533.15c1.12,0,2.1,2.08,2.23,4.73a5.82,5.82,0,0,1,0,.6v10.27h-4.5V538.48c0-.21,0-.41,0-.61.13-2.64,1.11-4.72,2.23-4.72m0-.25c-1.29,0-2.35,2.17-2.48,5,0,.2,0,.41,0,.62V549h5V538.48c0-.21,0-.42,0-.62-.13-2.79-1.19-5-2.48-5Z"/>
        </g>
        <g>
          <path class="cls-31" d="M847.12,583.88v-10.4c0-.21,0-.42,0-.61.14-2.72,1.17-4.84,2.36-4.84s2.22,2.12,2.35,4.83c0,.2,0,.41,0,.62v10.4Z"/>
          <path d="M849.5,568.15c1.12,0,2.1,2.08,2.23,4.73a5.82,5.82,0,0,1,0,.6v10.27h-4.5V573.48c0-.21,0-.41,0-.61.13-2.64,1.11-4.72,2.23-4.72m0-.25c-1.29,0-2.35,2.17-2.48,5,0,.2,0,.41,0,.62V584h5V573.48c0-.21,0-.42,0-.62-.13-2.79-1.19-5-2.48-5Z"/>
        </g>
        <g>
          <path class="cls-31" d="M808.12,619.88v-10.4c0-.21,0-.42,0-.61.14-2.72,1.17-4.84,2.36-4.84s2.22,2.12,2.35,4.83c0,.2,0,.41,0,.62v10.4Z"/>
          <path d="M810.5,604.15c1.12,0,2.1,2.08,2.23,4.73a5.82,5.82,0,0,1,0,.6v10.27h-4.5V609.48c0-.21,0-.41,0-.61.13-2.64,1.11-4.72,2.23-4.72m0-.25c-1.29,0-2.35,2.17-2.48,5,0,.2,0,.41,0,.62V620h5V609.48c0-.21,0-.42,0-.62-.13-2.79-1.19-5-2.48-5Z"/>
        </g>
        <g>
          <path class="cls-12" d="M745.12,673.88V608.21H777.4v-.12c.48-6.71,5.47-12,11.37-12h14.44c5.9,0,10.89,5.26,11.37,12v.12h32.28v65.67Zm47-74.37c-4.78,0-9.15,3.43-10.88,8.53l-.06.17h29.74l-.06-.17c-1.73-5.1-6.1-8.53-10.88-8.53Z"/>
          <path d="M803.22,596.25c5.83,0,10.77,5.21,11.25,11.85v.23h32.27v65.42H745.25V608.33h32.27v-.23c.48-6.64,5.42-11.85,11.25-11.85h14.44M781,608.33H811l-.11-.33c-1.75-5.15-6.17-8.61-11-8.61h-7.86c-4.83,0-9.25,3.46-11,8.61l-.11.33M803.22,596H788.78c-6,0-11,5.34-11.5,12.08H745V674H847V608.08H814.72c-.49-6.74-5.48-12.08-11.5-12.08Zm-21.91,12.08c1.67-4.93,5.88-8.44,10.76-8.44h7.86c4.88,0,9.09,3.51,10.76,8.44Z"/>
        </g>
      </g>
    </g>
    <circle class="nail cls-7" cx="849" cy="258.5" r="17.5"/>
    <text class="year cls-8"  transform="translate(778.53 219.1)">1819</text>
  </g>
  <!-- 1805 - Født -->
  <g id="event1805" class="event">
    <g class="image_frame">
      <rect id="frame-12" data-name="frame" class="cls-2" x="174.5" y="371" width="283" height="336"/>
      <polyline class="cls-3" points="174.5 371 316.5 258 457.5 371"/>
      <g id="image-13" data-name="image">
        <path class="cls-9" d="M301.8,516.1c28.3-16.34,41.84-45.89,30.23-66s-44-23.16-72.27-6.82-41.85,45.89-30.24,66S273.49,532.44,301.8,516.1Zm-36.37-63c22.38-12.92,47.95-10.53,57.12,5.35S321,497.68,298.63,510.6s-48,10.53-57.13-5.35S243,466,265.43,453.1Z"/>
        <path class="cls-14" d="M311.63,613.42c-.08-.15-.17-.3-.24-.44l0,0a35.61,35.61,0,0,1-2.95-11.81.06.06,0,0,1,0-.06c0-.51-.06-1-.07-1.57-.28-26.2-11.71-41-17.25-52.44l46.23-26.7c8.64,12.44,17.74,30,36.24,39a29.39,29.39,0,0,1,2.85,1.57,39.09,39.09,0,0,1,9.61,9l0,0,.26.43c8.73,15.13-.9,37-21.53,48.94S320.37,628.54,311.63,613.42Z"/>
        <path class="cls-17" d="M303.39,569.08c8-3.82,16.38-8.21,24.86-13.11,8-4.59,15.46-9.31,22.39-14,31.22-21.22,50.69-42.35,45.62-51.15-5-8.62-32.05-2.72-65.18,13-8.14,3.86-16.63,8.32-25.26,13.3s-16.75,10.11-24.15,15.23c-30.19,20.82-48.83,41.32-43.85,49.94S270.09,585,303.39,569.08Zm54.67-68.7c5.85-3.37,12.26-3.22,14.33.36s-1,9.22-6.86,12.6-12.26,3.22-14.33-.36S352.2,503.76,358.06,500.38Zm-82.93,49.8c5.85-3.38,12.26-3.22,14.33.36s-1,9.22-6.86,12.6-12.26,3.22-14.33-.36S269.27,553.56,275.13,550.18Z"/>
        <ellipse class="cls-9" cx="306.44" cy="518.18" rx="28.55" ry="9.91" transform="translate(-218.04 222.64) rotate(-30)"/>
        <path class="cls-17" d="M284.56,522.24c2.73,4.74,10.61-.41,20.64-6.2s18.42-10,15.69-14.78-13.09-3.88-23.12,1.91S281.82,517.5,284.56,522.24Z"/>
      </g>
    </g>
    <circle class="nail cls-7" cx="316" cy="258.5" r="17.5"/>
    <text class="year cls-8" transform="translate(249.53 219.1)">1805</text>
  </g>
</svg>
